<?xml version="1.0" encoding="utf-8" ?><svg xmlns="http://www.w3.org/2000/svg" xmlns:xlink="http://www.w3.org/1999/xlink" width="1280" height="832" viewBox="0 0 1280 832"><path fill="white" d="M0 0L1280 0L1280 832L0 832L0 0Z"/><path fill="#1B5EBF" d="M286.045 317.79C291.882 317.134 299.947 317.695 305.696 318.827C325.339 322.695 333.884 329.341 344.796 345.12C345.359 338.225 346.534 330.427 347.697 323.619C364.13 323.844 380.771 323.728 397.221 323.745C395.723 383.474 398.586 444.143 395.957 503.778C394.627 533.934 372.122 564.685 343.673 574.855C314.631 585.237 278.457 583.831 250.11 571.151C232.578 563.298 221.423 551.112 214.818 532.992C213.771 529.236 212.913 525.217 212.032 521.403L273.106 521.305C278.953 533.622 286.451 534.986 299.404 534.906C338.494 534.664 341.928 508.694 341.388 477.844C328.298 498.976 319.124 505.108 294.414 508.424C205.059 520.417 181.515 406.248 227.644 348.748C242.205 330.597 263.005 320.334 286.045 317.79Z"/><path fill="white" d="M294.911 365.272C305.075 363.965 317.389 366.154 325.995 372.22C347.843 387.62 348.737 431.256 334.549 451.984C328.687 460.549 319.64 464.459 309.677 466.135C285.24 468.856 265.467 454.334 262.294 429.772C260.156 413.222 260.651 392.65 270.693 378.518C276.881 369.81 284.767 366.754 294.911 365.272Z"/><path fill="#111" d="M693.821 317.823C715.984 316.228 743.967 324.063 759.91 340.107C786.952 367.32 782.47 407.656 782.219 443.198C781.959 468.153 781.848 493.11 781.885 518.067L727.092 518.17L726.927 480.74C723.666 489.551 720.062 498.456 713.247 505.152C700.776 517.405 684.014 521.392 667.087 521.342C646.8 521.282 628.801 515.292 614.341 500.659C594.953 479.33 595.959 440.494 616.711 420.399C645.767 392.262 689.302 395.46 726.626 395.567C725.462 369.027 705.776 358.017 679.707 366.203C673.359 368.197 670.216 375.346 668.07 381.289L609.827 380.752C613.348 335.841 654.538 319.623 693.821 317.823Z"/><path fill="white" d="M687.143 432.749C697.859 431.696 715.536 432.378 726.593 432.513C726.424 454.959 719.37 470.946 696.97 477.868C695.857 478.102 694.74 478.319 693.62 478.516C684.611 480.091 673.799 479.979 666.063 474.44C661.733 471.334 658.845 466.608 658.055 461.338C657.118 455.57 658.569 449.668 662.074 444.992C668.16 436.845 677.617 434.189 687.143 432.749Z"/><path fill="#111" d="M936.857 323.368C955.334 322.784 976.398 323.244 995.069 323.25L995.033 411.624L994.942 518.271L936.372 518.049C936.461 504.848 936.399 491.646 936.187 478.446C933.161 488.923 930.647 496.642 922.636 504.714C910.527 516.915 893.28 521.055 876.57 521.154C857.989 521.263 839.62 516.094 826.145 502.689C816.094 492.689 810.582 477.962 808 464.173C804.454 445.237 805.707 422.903 805.678 403.366C805.524 376.669 805.504 349.972 805.617 323.275L863.72 323.493L863.741 398.825C863.751 425.762 857.728 470.737 895.249 470.473C916.278 470.324 931.835 458.759 935.681 437.569C938.049 424.522 936.956 407.922 936.93 394.608L936.857 323.368Z"/><path fill="#111" d="M408.217 323.275C428.055 322.941 449.806 323.086 469.653 323.459L508.727 458.788C511.393 450.707 513.798 440.884 516.401 432.406L549.223 323.262C569.052 323.561 589.203 323.28 609.11 323.45C604.082 338.605 598.766 353.664 593.163 368.616C589.052 379.079 585.236 390.738 581.495 401.43C567.863 440.386 552.879 479.291 539.413 518.255C517.404 518.179 494.327 518.527 472.429 517.853C464.953 493.415 456.346 468.613 448.301 444.349L408.217 323.275Z"/><path fill="#111" d="M1176.92 263.196C1178.01 263.07 1177.47 263.056 1178.55 263.5C1179.09 282.823 1178.73 303.839 1178.73 323.291L1218.8 323.278L1218.87 368.367C1205.48 368.532 1192.09 368.629 1178.7 368.658L1178.75 423.312C1178.75 461.182 1172.86 477.661 1218.68 470.64C1218.68 485.887 1218.89 501.133 1219.33 516.373C1204.85 520.636 1187.31 522.286 1172.35 520.336C1157.37 519.063 1142.35 512.901 1131.71 502.125C1124.75 495.139 1119.91 486.319 1117.77 476.692C1115.49 466.666 1116.34 445.354 1116.34 433.899L1116.34 368.56L1085.62 368.349L1085.57 324.433L1089.35 324.611C1122.77 326.008 1116.53 310.886 1116.35 283.555C1134.01 276.745 1158.44 269.371 1176.92 263.196Z"/><path fill="#1B5EBF" d="M154.082 263.17C154.525 263.282 154.848 263.648 155.265 263.984C155.693 283.321 155.239 304.05 155.363 323.584C168.793 323.697 182.384 323.549 195.826 323.507C195.64 338.399 195.614 353.292 195.75 368.184L155.152 368.333L155.091 424.363C155.091 435.604 155.079 446.477 155.77 457.706C157.007 477.787 178.704 472.947 192.787 470.713L195.048 516.032C181.105 520.535 162.681 521.576 148.124 520.274C135.072 519.831 119.733 513.382 110.484 504.196C103.514 497.286 98.6773 488.516 96.5514 478.933C94.2383 468.815 94.9684 445.869 94.9814 434.479L94.9941 368.26L61.1341 368.088L60.8913 324.38C98.9687 324.889 94.9456 319.852 95.0142 283.584C114.569 276.396 134.262 269.59 154.082 263.17Z"/><path fill="#111" d="M1018.81 257.994L1078.79 258.034C1079.68 344.036 1078.83 431.838 1078.75 517.956C1059.06 518.34 1038.49 518.079 1018.74 518.095L1018.81 257.994Z"/></svg>